# xmcd
# 
# Track frame offsets:
#	150
#	23287
#	44462
#	79920
#	97732
#	115162
#	135032
#	152307
#	172167
#	197122
#	213052
#	239430
#
# Disc length: 3452 seconds
#
# Revision: 1
# Processed by: cddbd v1.4PL0 Copyright (c) Steve Scherf et al.
# Submitted via: Audio-CD-Archiv 2.10.446
#
DISCID=860d7a0c
DTITLE=Tim Lawson - The Quiet Canadian
DYEAR=1900
DGENRE=country
TTITLE0=Falling Water
TTITLE1=Wartime Letters
TTITLE2=A Thousand Leaves
TTITLE3=Stand Still
TTITLE4=Shining Eyes
TTITLE5=Spirit Song
TTITLE6=She Can't Be Blamed
TTITLE7=On The Mountain
TTITLE8=There You Go
TTITLE9=The Quiet Canadian
TTITLE10=I Have So Many Dreams
TTITLE11=We All Change
EXTD=
EXTT0=
EXTT1=
EXTT2=
EXTT3=
EXTT4=
EXTT5=
EXTT6=
EXTT7=
EXTT8=
EXTT9=
EXTT10=
EXTT11=
PLAYORDER=
